<svg width="12" height="20" viewBox="0 0 12 20" fill="none" xmlns="http://www.w3.org/2000/svg">
<g clip-path="url(#clip0_144_1850)">
<path d="M8.69938 17.9688H7.19935V13.6158C9.76826 13.0265 11.6233 10.6523 11.3759 7.89727L10.7802 1.28809C10.7539 0.981934 10.4952 0.75 10.1915 0.75H1.80958C1.50477 0.75 1.24683 0.981934 1.21871 1.28809L0.623722 7.89727C0.375342 10.6526 2.23135 13.0258 4.80027 13.6195V17.9688H3.29986C2.47018 17.9688 1.79983 18.6323 1.79983 19.4531C1.79983 19.6155 1.93574 19.75 2.09984 19.75H9.89805C10.0622 19.75 10.1981 19.6155 10.1981 19.4531C10.199 18.633 9.52794 17.9688 8.69938 17.9688ZM6.76482 11.8902C6.25315 12.0075 5.72113 12.007 5.20967 11.8889C3.44608 11.482 2.25422 9.84922 2.41506 8.06426L2.91445 2.53125H9.08554L9.58418 8.06797C9.7446 9.84959 8.55316 11.4794 6.79256 11.8828L6.76482 11.8902Z" fill="#F9D417"/>
</g>
<defs>
<clipPath id="clip0_144_1850">
<rect width="12" height="19" fill="white" transform="translate(0 0.75)"/>
</clipPath>
</defs>
</svg>
