<svg width="28" height="28" viewBox="0 0 28 28" fill="none" xmlns="http://www.w3.org/2000/svg">
<path d="M9.44992 15.5633L12.7516 12.2616L4.56159 4.08328C3.68758 4.95981 3.19678 6.14713 3.19678 7.38495C3.19678 8.62277 3.68758 9.81009 4.56159 10.6866L9.44992 15.5633ZM17.3599 13.4516C19.1449 14.2799 21.6533 13.6966 23.5083 11.8416C25.7366 9.61328 26.1683 6.41662 24.4533 4.70162C22.7499 2.99828 19.5533 3.41828 17.3133 5.64662C15.4583 7.50162 14.8749 10.0099 15.7033 11.7949L4.31659 23.1816L5.96159 24.8266L13.9999 16.8116L22.0266 24.8383L23.6716 23.1933L15.6449 15.1666L17.3599 13.4516Z" fill="#B0BEC5"/>
</svg>
