<svg width="28" height="28" viewBox="0 0 28 28" fill="none" xmlns="http://www.w3.org/2000/svg">
<path d="M14 5.22668C13.1186 5.22668 12.2569 5.48806 11.524 5.97777C10.7911 6.46747 10.2199 7.16351 9.88258 7.97786C9.54527 8.79221 9.45701 9.6883 9.62897 10.5528C9.80093 11.4173 10.2254 12.2114 10.8487 12.8347C11.4719 13.458 12.266 13.8824 13.1306 14.0544C13.9951 14.2263 14.8911 14.1381 15.7055 13.8008C16.5198 13.4635 17.2159 12.8922 17.7056 12.1593C18.1953 11.4264 18.4567 10.5648 18.4567 9.68335C18.4567 8.50137 17.9871 7.3678 17.1513 6.53201C16.3156 5.69623 15.182 5.22668 14 5.22668ZM14 12.5845C13.4262 12.5845 12.8653 12.4143 12.3882 12.0955C11.9111 11.7768 11.5393 11.3237 11.3197 10.7936C11.1001 10.2634 11.0427 9.68013 11.1546 9.11737C11.2666 8.55461 11.5429 8.03768 11.9486 7.63196C12.3543 7.22623 12.8713 6.94992 13.434 6.83798C13.9968 6.72604 14.5801 6.7835 15.1102 7.00307C15.6403 7.22265 16.0934 7.5945 16.4122 8.07158C16.731 8.54867 16.9011 9.10957 16.9011 9.68335C16.8991 10.4514 16.5925 11.1873 16.0487 11.7297C15.5048 12.2721 14.7681 12.5767 14 12.5767V12.5845Z" fill="#222222"/>
<path d="M14 1.55554C11.5774 1.55757 9.25398 2.51819 7.53729 4.22759C5.82059 5.937 4.8501 8.25628 4.83777 10.6789C4.83777 14.3111 6.87555 17.3522 8.36888 19.5689L8.6411 19.9733C10.1269 22.1267 11.7208 24.2034 13.4167 26.1955L14.0078 26.8878L14.5989 26.1955C16.2946 24.2033 17.8884 22.1265 19.3744 19.9733L19.6467 19.5611C21.1322 17.3444 23.17 14.3111 23.17 10.6789C23.1577 8.25494 22.1861 5.93448 20.4677 4.22485C18.7493 2.51522 16.424 1.55551 14 1.55554ZM18.3478 18.6667L18.0678 19.0789C16.73 21.0855 14.9567 23.3333 14 24.4455C13.0822 23.3333 11.27 21.0855 9.93221 19.0789L9.65999 18.6667C8.28332 16.6133 6.39332 13.8055 6.39332 10.6478C6.39332 9.64884 6.59008 8.6597 6.97235 7.73682C7.35462 6.81394 7.91492 5.97538 8.62127 5.26904C9.32761 4.56269 10.1662 4.00239 11.089 3.62012C12.0119 3.23785 13.0011 3.0411 14 3.0411C14.9989 3.0411 15.9881 3.23785 16.9109 3.62012C17.8338 4.00239 18.6724 4.56269 19.3787 5.26904C20.0851 5.97538 20.6454 6.81394 21.0276 7.73682C21.4099 8.6597 21.6067 9.64884 21.6067 10.6478C21.6067 13.8367 19.7244 16.6444 18.3478 18.6667Z" fill="#222222"/>
</svg>
