<svg width="28" height="28" viewBox="0 0 28 28" fill="none" xmlns="http://www.w3.org/2000/svg">
<path d="M14.0002 2.33331C7.56716 2.33331 2.3335 7.56698 2.3335 14C2.3335 20.433 7.56716 25.6666 14.0002 25.6666C20.4332 25.6666 25.6668 20.433 25.6668 14C25.6668 7.56698 20.4332 2.33331 14.0002 2.33331ZM14.0002 23.3333C8.854 23.3333 4.66683 19.1461 4.66683 14C4.66683 8.85381 8.854 4.66665 14.0002 4.66665C19.1463 4.66665 23.3335 8.85381 23.3335 14C23.3335 19.1461 19.1463 23.3333 14.0002 23.3333Z" fill="#222222"/>
<path d="M15.1668 8.16669H12.8335V15.1667H19.8335V12.8334H15.1668V8.16669Z" fill="#222222"/>
</svg>
