<svg width="28" height="28" viewBox="0 0 28 28" fill="none" xmlns="http://www.w3.org/2000/svg">
<path d="M20.1602 12.6H12.0402C11.2674 12.6 11.2002 13.2258 11.2002 14C11.2002 14.7742 11.2674 15.4 12.0402 15.4H20.1602C20.933 15.4 21.0002 14.7742 21.0002 14C21.0002 13.2258 20.933 12.6 20.1602 12.6ZM22.9602 19.6H12.0402C11.2674 19.6 11.2002 20.2258 11.2002 21C11.2002 21.7742 11.2674 22.4 12.0402 22.4H22.9602C23.733 22.4 23.8002 21.7742 23.8002 21C23.8002 20.2258 23.733 19.6 22.9602 19.6ZM12.0402 8.39998H22.9602C23.733 8.39998 23.8002 7.77418 23.8002 6.99998C23.8002 6.22578 23.733 5.59998 22.9602 5.59998H12.0402C11.2674 5.59998 11.2002 6.22578 11.2002 6.99998C11.2002 7.77418 11.2674 8.39998 12.0402 8.39998ZM7.5602 12.6H5.0402C4.2674 12.6 4.2002 13.2258 4.2002 14C4.2002 14.7742 4.2674 15.4 5.0402 15.4H7.5602C8.333 15.4 8.4002 14.7742 8.4002 14C8.4002 13.2258 8.333 12.6 7.5602 12.6ZM7.5602 19.6H5.0402C4.2674 19.6 4.2002 20.2258 4.2002 21C4.2002 21.7742 4.2674 22.4 5.0402 22.4H7.5602C8.333 22.4 8.4002 21.7742 8.4002 21C8.4002 20.2258 8.333 19.6 7.5602 19.6ZM7.5602 5.59998H5.0402C4.2674 5.59998 4.2002 6.22578 4.2002 6.99998C4.2002 7.77418 4.2674 8.39998 5.0402 8.39998H7.5602C8.333 8.39998 8.4002 7.77418 8.4002 6.99998C8.4002 6.22578 8.333 5.59998 7.5602 5.59998Z" fill="#247F9E"/>
</svg>
