<svg width="28" height="28" viewBox="0 0 28 28" fill="none" xmlns="http://www.w3.org/2000/svg">
<path d="M14.0002 17.5C11.8535 17.5 11.6668 16.4967 11.6668 16.3333H9.3335C9.3335 17.4067 10.1035 19.3083 12.8335 19.74V21H15.1668V19.74C17.5002 19.3433 18.6668 17.8383 18.6668 16.3333C18.6668 15.0267 18.0602 12.8333 14.0002 12.8333C11.6668 12.8333 11.6668 12.0983 11.6668 11.6667C11.6668 11.235 12.4835 10.5 14.0002 10.5C15.5168 10.5 15.6218 11.2467 15.6335 11.6667H17.9668C17.9511 10.8719 17.6652 10.1061 17.1563 9.49545C16.6474 8.88476 15.9457 8.4655 15.1668 8.30667V7H12.8335V8.27167C10.5002 8.65667 9.3335 10.1617 9.3335 11.6667C9.3335 12.9733 9.94016 15.1667 14.0002 15.1667C16.3335 15.1667 16.3335 15.96 16.3335 16.3333C16.3335 16.7067 15.6102 17.5 14.0002 17.5Z" fill="#555555"/>
<path d="M5.8335 2.33331H2.3335V4.66665H4.66683V24.5C4.66683 24.8094 4.78975 25.1061 5.00854 25.3249C5.22733 25.5437 5.52408 25.6666 5.8335 25.6666H22.1668C22.4762 25.6666 22.773 25.5437 22.9918 25.3249C23.2106 25.1061 23.3335 24.8094 23.3335 24.5V4.66665H25.6668V2.33331H5.8335ZM21.0002 23.3333H7.00016V4.66665H21.0002V23.3333Z" fill="#555555"/>
</svg>
